External Loads File
version=1
nRows=31
nColumns=13
Range=5.000000e-03-10 seconds
endheader
time 	forceRightX 	forceRightY 	forceRightZ 	pointRightX 	pointRightY 	pointRightZ 	forceLeftX 	forceLeftY 	forceLeftZ 	pointLeftX 	pointLeftY 	pointLeftZ 		
5.005000 -50.750034 124.334593 -0.000000 0.303360 0.481330 -0.140358 235.119520 531.224171 -0.000000 0.256817 0.154548 -0.374985
5.010000 -50.809723 124.981594 -0.000000 0.312591 0.482220 -0.139948 242.019031 493.653935 -0.000000 0.246949 0.154999 -0.375260
5.015000 -51.086903 126.063227 -0.000000 0.321739 0.482440 -0.139543 247.312055 457.633087 -0.000000 0.237211 0.156153 -0.375562
5.020000 -51.419712 128.084255 -0.000000 0.330608 0.481879 -0.139077 250.570270 422.561265 -0.000000 0.227713 0.157851 -0.375815
5.025000 -51.515856 131.652568 -0.000000 0.339258 0.480681 -0.138594 251.818075 387.810577 -0.000000 0.218492 0.160336 -0.376111
5.030000 -51.192947 137.368912 -0.000000 0.347577 0.478754 -0.138111 250.856365 353.204731 -0.000000 0.209611 0.163510 -0.376401
5.035000 -50.406779 145.754404 -0.000000 0.355392 0.476305 -0.137620 247.521788 318.995852 -0.000000 0.201082 0.167291 -0.376666
5.040000 -48.929218 157.314424 -0.000000 0.363090 0.472977 -0.136956 242.467663 285.221154 -0.000000 0.192989 0.171704 -0.376943
5.045000 -47.077756 172.254521 -0.000000 0.370098 0.468867 -0.136419 235.547983 252.862257 -0.000000 0.185343 0.176729 -0.377157
5.050000 -45.100923 190.666546 -0.000000 0.376634 0.464404 -0.135769 227.234554 222.680169 -0.000000 0.178199 0.182416 -0.377402
5.055000 -43.304838 212.473907 -0.000000 0.382671 0.459287 -0.135315 218.136961 195.400451 -0.000000 0.171536 0.188597 -0.377678
5.060000 -42.187601 237.449730 -0.000000 0.388059 0.453502 -0.134666 208.762276 171.761717 -0.000000 0.165274 0.195164 -0.378025
5.065000 -41.989691 265.331548 -0.000000 0.393344 0.447109 -0.134222 199.768928 152.024945 -0.000000 0.159468 0.202117 -0.378477
5.070000 -43.226718 295.721269 -0.000000 0.397972 0.439922 -0.133490 191.442023 136.460248 -0.000000 0.154159 0.209686 -0.378701
5.075000 -46.427161 328.151885 -0.000000 0.402061 0.432099 -0.132808 183.954082 125.040633 -0.000000 0.149390 0.217626 -0.378735
5.080000 -51.920245 362.119640 -0.000000 0.405963 0.423971 -0.132305 177.448612 117.357656 -0.000000 0.145132 0.225860 -0.378950
5.085000 -59.810976 397.095636 -0.000000 0.409402 0.415255 -0.132012 171.995872 112.697251 -0.000000 0.141467 0.234382 -0.379078
5.090000 -70.016254 432.566792 -0.000000 0.412551 0.406311 -0.131597 167.527258 110.148787 -0.000000 0.138328 0.243326 -0.379214
5.095000 -81.446232 468.233322 -0.000000 0.414995 0.396053 -0.131460 164.009630 108.422287 -0.000000 0.135773 0.252413 -0.379321
5.100000 -95.192188 503.504280 -0.000000 0.417238 0.386281 -0.131105 160.709444 107.095337 -0.000000 0.133828 0.261812 -0.379284
5.105000 -109.492319 538.391851 -0.000000 0.419035 0.375942 -0.130879 157.440835 104.895970 -0.000000 0.132584 0.271409 -0.379048
5.110000 -123.908910 572.806277 -0.000000 0.420086 0.365286 -0.130514 153.654825 101.296302 -0.000000 0.131961 0.281159 -0.378566
5.115000 -137.703311 606.776552 -0.000000 0.421077 0.354547 -0.130806 148.929371 95.972394 -0.000000 0.132099 0.290976 -0.377996
5.120000 -149.797128 640.402294 -0.000000 0.421385 0.343634 -0.130762 143.039610 88.817364 -0.000000 0.132985 0.300928 -0.377641
5.125000 -159.568620 673.614794 -0.000000 0.421047 0.332706 -0.130792 135.871182 80.052177 -0.000000 0.134647 0.310882 -0.377581
5.130000 -165.801662 706.369995 -0.000000 0.420006 0.321636 -0.130830 127.551093 69.844439 -0.000000 0.136820 0.320715 -0.377552
5.135000 -167.121100 738.521066 -0.000000 0.418471 0.310559 -0.130898 118.291013 58.328897 -0.000000 0.139565 0.330694 -0.377498
5.140000 -163.592476 769.463364 -0.000000 0.416242 0.299622 -0.130920 108.214933 45.833055 -0.000000 0.142738 0.340631 -0.377426
5.145000 -153.634291 798.846250 -0.000000 0.413540 0.288693 -0.131077 97.604353 32.400117 -0.000000 0.146557 0.350769 -0.377344
5.150000 -140.324313 825.336593 -0.000000 0.410081 0.278102 -0.131429 86.575527 18.616887 -0.000000 0.150638 0.360288 -0.376303
5.155000 -119.960455 848.862136 -0.000000 0.405976 0.267545 -0.131397 75.484122 4.211098 -0.000000 0.155292 0.370129 -0.376030
